<?xml version="1.0" encoding="UTF-8" standalone="no"?>
<svg
   viewBox="0 0 23.883884 16.666666"
   version="1.1"
   id="svg8"
   sodipodi:docname="arduino.svg"
   inkscape:version="1.4 (e7c3feb100, 2024-10-09)"
   width="23.883884"
   height="16.666666"
   xmlns:inkscape="http://www.inkscape.org/namespaces/inkscape"
   xmlns:sodipodi="http://sodipodi.sourceforge.net/DTD/sodipodi-0.dtd"
   xmlns="http://www.w3.org/2000/svg"
   xmlns:svg="http://www.w3.org/2000/svg">
  <sodipodi:namedview
     id="namedview8"
     pagecolor="#ffffff"
     bordercolor="#000000"
     borderopacity="0.25"
     inkscape:showpageshadow="2"
     inkscape:pageopacity="0.0"
     inkscape:pagecheckerboard="0"
     inkscape:deskcolor="#d1d1d1"
     inkscape:zoom="11.313708"
     inkscape:cx="21.478369"
     inkscape:cy="19.357048"
     inkscape:window-width="1920"
     inkscape:window-height="1008"
     inkscape:window-x="0"
     inkscape:window-y="0"
     inkscape:window-maximized="1"
     inkscape:current-layer="svg8" />
  <defs
     id="defs1">
    <style
       id="style1">.cls-1{fill:#7fcbcd;}.cls-2{fill:none;stroke:#fff;stroke-miterlimit:10;stroke-width:0.92px;opacity:0.2;isolation:isolate;}.cls-3{fill:#fff;}</style>
  </defs>
  <rect
     class="cls-1"
     height="16.666666"
     width="23.883884"
     id="rect1"
     x="0"
     y="0"
     style="stroke-width:0.115191" />
  <path
     class="cls-3"
     d="m 20.393883,7.2283311 c 0,-2.146667 -1.811667,-3.893334 -4.038333,-3.893334 a 4.365,4.365 0 0 0 -0.621667,0.043334 c -1.728333,0.246666 -2.886667,1.5 -3.535,2.445 -0.648333,-0.953334 -1.815,-2.198334 -3.5383325,-2.445 a 4.3333333,4.3333333 0 0 0 -0.62,-0.04333 c -2.228334,0 -4.038334,1.746667 -4.038334,3.893334 0,2.146666 1.81,3.8949999 4.036667,3.8949999 a 4.585,4.585 0 0 0 0.621667,-0.04333 C 10.383883,10.833331 11.55055,9.5866641 12.198883,8.6316641 c 0.648333,0.955 1.806667,2.1999999 3.535,2.4483329 a 4.6283333,4.6283333 0 0 0 0.623333,0.04333 c 2.225,0 4.036667,-1.7466669 4.036667,-3.8949999 m -11.9283325,2.485 a 3.06,3.06 0 0 1 -0.426667,0.03 c -1.465,0 -2.656667,-1.128334 -2.656667,-2.515 0,-1.386667 1.191667,-2.515 2.666667,-2.515 a 3.0583333,3.0583333 0 0 1 0.425,0.03167 c 1.6299995,0.231667 2.6283325,1.833334 2.9666665,2.483334 -0.333334,0.645 -1.333334,2.251666 -2.9666665,2.485 m 4.4999995,-2.485 c 0.333333,-0.643334 1.333333,-2.251667 2.965,-2.483334 a 3.0583333,3.0583333 0 0 1 0.425,-0.03167 c 1.465,0 2.656667,1.13 2.656667,2.515 0,1.385 -1.19,2.515 -2.655,2.515 a 3.0783333,3.0783333 0 0 1 -0.426667,-0.03 c -1.63,-0.233334 -2.628333,-1.841667 -2.965,-2.485"
     id="path1"
     style="stroke-width:0.166667" />
  <rect
     class="cls-3"
     x="6.9272165"
     width="2.425"
     height="0.7816667"
     y="6.8483286"
     id="rect2"
     style="stroke-width:0.166667" />
  <polygon
     class="cls-3"
     points="178.45,41.09 178.45,36.16 173.74,36.16 173.74,41.09 168.82,41.09 168.82,45.78 173.74,45.78 173.74,50.71 178.45,50.71 178.45,45.78 183.36,45.78 183.36,41.09 "
     id="polygon2"
     transform="matrix(0.16666667,0,0,0.16666667,-13.116117,-2.8764648e-6)" />
  <path
     class="cls-3"
     d="m 4.4155505,14.569997 0.723333,-2.303333 h 0.64 l 0.733333,2.303333 h -0.605 l -0.128333,-0.47 h -0.666667 l -0.116666,0.47 z m 1.02,-1.756666 -0.208334,0.843333 h 0.435 z"
     id="path2"
     style="stroke-width:0.166667" />
  <path
     class="cls-3"
     d="m 6.8288835,12.266664 h 0.926667 c 0.638333,0 0.878333,0.333333 0.878333,0.77 a 0.72666667,0.72666667 0 0 1 -0.378333,0.69 l 0.45,0.843333 h -0.666667 l -0.353333,-0.736666 h -0.286667 v 0.73 h -0.57 z m 1.2,0.773333 c 0,-0.205 -0.075,-0.308333 -0.333333,-0.308333 h -0.29 v 0.651667 h 0.3 c 0.191666,0 0.323333,-0.08833 0.323333,-0.343334 z"
     id="path3"
     style="stroke-width:0.166667" />
  <path
     class="cls-3"
     d="m 9.0505505,12.266664 h 0.755 c 0.8599995,0 1.1466655,0.408333 1.1466655,1.131667 0,0.545 -0.166666,1.166666 -1.1433325,1.166666 h -0.758333 z m 0.57,0.465 v 1.368333 h 0.216666 c 0.4716665,0 0.4999995,-0.288333 0.4999995,-0.678333 0,-0.45 -0.04667,-0.69 -0.5566655,-0.69 z"
     id="path4"
     style="stroke-width:0.166667" />
  <path
     class="cls-3"
     d="m 12.583883,12.266664 h 0.548333 v 1.513333 c 0,0.68 -0.52,0.825 -0.928333,0.825 -0.408333,0 -0.895,-0.13 -0.895,-0.833333 v -1.505 h 0.575 v 1.4 c 0,0.383333 0.135,0.471667 0.35,0.471667 0.26,0 0.355,-0.116667 0.355,-0.468334 z"
     id="path5"
     style="stroke-width:0.166667" />
  <path
     class="cls-3"
     d="m 13.593883,14.099997 h 0.595 v -1.361666 h -0.595 v -0.471667 h 1.763333 v 0.471667 h -0.598333 v 1.361666 h 0.598333 v 0.47 h -1.763333 z"
     id="path6"
     style="stroke-width:0.166667" />
  <path
     class="cls-3"
     d="m 16.317216,14.569997 h -0.538333 v -2.303333 h 0.62 l 0.746667,1.383333 v -1.383333 h 0.531666 v 2.303333 H 17.10055 l -0.786667,-1.473333 z"
     id="path7"
     style="stroke-width:0.166667" />
  <path
     class="cls-3"
     d="m 19.958883,13.418331 c 0,0.666666 -0.245,1.186666 -0.985,1.186666 -0.666667,0 -0.966667,-0.4 -0.966667,-1.166666 0,-0.693334 0.265,-1.208334 0.963334,-1.208334 0.655,0.005 0.988333,0.31 0.988333,1.188334 z m -0.606667,0 c 0,-0.563334 -0.045,-0.718334 -0.381666,-0.718334 -0.305,0 -0.358334,0.18 -0.358334,0.743334 0,0.465 0.03167,0.698333 0.361667,0.698333 0.33,0 0.378333,-0.191667 0.378333,-0.723333 z"
     id="path8"
     style="stroke-width:0.166667" />
</svg>
